<svg width="32" height="32" viewBox="0 0 32 32" fill="none" xmlns="http://www.w3.org/2000/svg">
  <rect width="32" height="32" rx="8" fill="url(#gradient)"/>
  <path d="M16 8l1.5 4.5L22 14l-4.5 1.5L16 20l-1.5-4.5L10 14l4.5-1.5L16 8z" fill="white"/>
  <path d="M22 10l0.75 2.25L25 13l-2.25 0.75L22 16l-0.75-2.25L19 13l2.25-0.75L22 10z" fill="white" opacity="0.8"/>
  <path d="M10 18l0.75 2.25L13 21l-2.25 0.75L10 24l-0.75-2.25L7 21l2.25-0.75L10 18z" fill="white" opacity="0.6"/>
  <defs>
    <linearGradient id="gradient" x1="0%" y1="0%" x2="100%" y2="100%">
      <stop offset="0%" style="stop-color:#3B82F6"/>
      <stop offset="100%" style="stop-color:#8B5CF6"/>
    </linearGradient>
  </defs>
</svg>
